<?xml version="1.0" encoding="UTF-8"?>
<svg version="1.1" xmlns="http://www.w3.org/2000/svg" width="512" height="512">
<path d="M0 0 C0.7832666 0.39985107 1.5665332 0.79970215 2.37353516 1.21166992 C3.67484375 1.868125 3.67484375 1.868125 5.00244141 2.5378418 C5.88029297 3.00125977 6.75814453 3.46467773 7.66259766 3.94213867 C9.01417969 4.61986328 9.01417969 4.61986328 10.39306641 5.3112793 C17.00573026 8.70683757 17.00573026 8.70683757 19.28759766 12.12963867 C19.9451319 19.03374826 19.9451319 19.03374826 17.78759766 22.62963867 C14.17932103 24.79460465 11.30315347 25.03281385 7.28759766 24.12963867 C4.16394487 22.67439361 1.19172008 21.08417181 -1.78271484 19.34448242 C-5.80715949 17.67567938 -8.58923861 18.26509004 -12.61289477 19.90351593 C-14.85030733 20.9463052 -17.05317879 22.04315807 -19.25448608 23.16017151 C-20.09879181 23.58061234 -20.94309753 24.00105316 -21.81298828 24.43423462 C-24.64709357 25.84797963 -27.47530812 27.27312688 -30.30371094 28.69824219 C-32.36663452 29.73031668 -34.42991029 30.76168749 -36.49350929 31.79241085 C-42.02032168 34.5553654 -47.54226026 37.32792911 -53.06324768 40.10250092 C-58.24406346 42.70429595 -63.42920503 45.29740568 -68.61401367 47.89123535 C-83.77618004 55.48281452 -98.93136558 63.08832958 -114.08740234 70.69213867 C-147.95365234 87.66651367 -181.81990234 104.64088867 -216.71240234 122.12963867 C-78.11240234 122.12963867 60.48759766 122.12963867 203.28759766 122.12963867 C189.42759766 115.19963867 189.42759766 115.19963867 175.28759766 108.12963867 C172.82539278 104.43633136 172.61489063 101.41598987 173.28759766 97.12963867 C174.78759766 94.62963867 174.78759766 94.62963867 177.28759766 93.12963867 C185.66699621 91.81788989 192.32598729 96.10455745 199.56103516 99.80541992 C200.93427958 100.49442935 202.30812023 101.18225162 203.68252563 101.86894226 C206.55027939 103.30593586 209.41236375 104.75346229 212.27050781 106.20947266 C215.9342842 108.07545483 219.60833439 109.9200106 223.28644371 111.75755024 C226.11893522 113.17433949 228.9471825 114.59942514 231.77406693 116.02736473 C233.12790334 116.71064419 234.48271531 117.39199425 235.83851242 118.07137489 C237.72855003 119.02072736 239.61294763 119.98042478 241.49609375 120.94335938 C242.56894623 121.48740921 243.64179871 122.03145905 244.74716187 122.59199524 C247.28759766 124.12963867 247.28759766 124.12963867 249.28759766 127.12963867 C249.82396129 132.76145685 249.82396129 132.76145685 249.28759766 135.12963867 C247.96759766 136.44963867 246.64759766 137.76963867 245.28759766 139.12963867 C232.08759766 139.12963867 218.88759766 139.12963867 205.28759766 139.12963867 C205.28759766 191.92963867 205.28759766 244.72963867 205.28759766 299.12963867 C211.88759766 299.12963867 218.48759766 299.12963867 225.28759766 299.12963867 C229.28759766 303.12963867 229.28759766 303.12963867 229.74169922 306.15405273 C229.71027832 307.88220215 229.71027832 307.88220215 229.67822266 309.64526367 C229.65888672 311.52084961 229.65888672 311.52084961 229.63916016 313.43432617 C229.58888672 315.38725586 229.58888672 315.38725586 229.53759766 317.37963867 C229.51955078 318.69706055 229.50150391 320.01448242 229.48291016 321.37182617 C229.43576037 324.62516175 229.36995809 327.87703492 229.28759766 331.12963867 C230.39619141 331.08323242 231.50478516 331.03682617 232.64697266 330.98901367 C234.11048734 330.95148765 235.57403121 330.91508838 237.03759766 330.87963867 C237.76720703 330.84612305 238.49681641 330.81260742 239.24853516 330.77807617 C242.49317193 330.71908278 244.75369179 330.77645393 247.49755859 332.59155273 C250.14113482 336.33986403 249.86199505 339.64402707 249.81884766 344.12963867 C249.82267456 345.00233398 249.82650146 345.8750293 249.83044434 346.77416992 C249.83316256 348.61662959 249.8258076 350.45912791 249.80908203 352.30151367 C249.78767013 355.12009801 249.80888567 357.93613352 249.83447266 360.75463867 C249.83182936 362.54631096 249.82670435 364.33798166 249.81884766 366.12963867 C249.82694458 366.97139648 249.8350415 367.8131543 249.84338379 368.68041992 C249.82447083 369.8618457 249.82447083 369.8618457 249.80517578 371.06713867 C249.80199341 371.75678711 249.79881104 372.44643555 249.79553223 373.15698242 C249.01826096 376.17565668 247.76082951 377.234521 245.28759766 379.12963867 C242.37689285 379.52154921 239.84542751 379.66719809 236.9354248 379.63300323 C236.08106748 379.638817 235.22671015 379.64463076 234.3464632 379.6506207 C231.46392901 379.66529839 228.58223599 379.65129933 225.69970703 379.63757324 C223.62020175 379.64217908 221.54069971 379.64852985 219.46120453 379.65648222 C213.73148322 379.67324214 208.00202703 379.66489892 202.27230453 379.65253735 C196.09907956 379.64351638 189.92590134 379.65744187 183.75268555 379.66845703 C172.35321081 379.68524754 160.95384463 379.68374768 149.55437255 379.67281116 C139.02427637 379.66275802 128.49421132 379.66011788 117.96411133 379.66490173 C117.26624801 379.66520727 116.56838469 379.66551281 115.849374 379.66582761 C113.01668276 379.66707292 110.18399153 379.66834652 107.35130033 379.66966667 C80.76601825 379.68190899 54.18079029 379.67079881 27.59551656 379.64927908 C3.96420211 379.63029595 -19.66702614 379.63199443 -43.29833984 379.65112305 C-69.83428013 379.67253093 -96.37017258 379.68104085 -122.9061203 379.66867399 C-125.73371886 379.66739108 -128.56131743 379.66613972 -131.38891602 379.66490173 C-132.08516816 379.66458542 -132.78142031 379.66426911 -133.49877101 379.66394322 C-144.02352646 379.65938892 -154.54824738 379.66472262 -165.07299805 379.67481995 C-177.03737544 379.68624104 -189.00165098 379.68304557 -200.9660244 379.66169697 C-207.07481036 379.65115738 -213.183421 379.64711419 -219.29220581 379.66029358 C-224.87818869 379.67216311 -230.46383277 379.66574506 -236.04978466 379.64438337 C-238.07663734 379.63989415 -240.10351831 379.6422351 -242.13035297 379.65188652 C-244.87405885 379.66395506 -247.61658639 379.65167328 -250.36022949 379.63300323 C-251.55563748 379.64705023 -251.55563748 379.64705023 -252.77519512 379.66138101 C-256.34913478 379.61238131 -258.32448717 379.42687926 -261.20266724 377.2214694 C-262.86262148 374.92150083 -263.21705917 373.86729865 -263.22998047 371.06713867 C-263.24889343 369.88571289 -263.24889343 369.88571289 -263.26818848 368.68041992 C-263.26009155 367.83866211 -263.25199463 366.9969043 -263.24365234 366.12963867 C-263.24747925 365.25694336 -263.25130615 364.38424805 -263.25524902 363.48510742 C-263.25796724 361.64264775 -263.25061229 359.80014943 -263.23388672 357.95776367 C-263.21247482 355.13917933 -263.23369036 352.32314383 -263.25927734 349.50463867 C-263.25663405 347.71296638 -263.25150904 345.92129568 -263.24365234 344.12963867 C-263.25579773 342.86700195 -263.25579773 342.86700195 -263.26818848 341.57885742 C-263.20739578 337.78135309 -263.15387273 335.75559695 -260.92236328 332.59155273 C-257.59029051 330.38734905 -254.30559576 330.70309622 -250.46240234 330.87963867 C-249.71732422 330.89768555 -248.97224609 330.91573242 -248.20458984 330.93432617 C-246.37330533 330.98128219 -244.54268586 331.05302215 -242.71240234 331.12963867 C-242.73334961 330.30238281 -242.75429687 329.47512695 -242.77587891 328.62280273 C-242.85901854 324.87520497 -242.91105765 321.12780118 -242.96240234 317.37963867 C-243.01267578 315.42670898 -243.01267578 315.42670898 -243.06396484 313.43432617 C-243.07685547 312.18393555 -243.08974609 310.93354492 -243.10302734 309.64526367 C-243.12397461 308.49316406 -243.14492187 307.34106445 -243.16650391 306.15405273 C-242.71240234 303.12963867 -242.71240234 303.12963867 -238.71240234 299.12963867 C-232.11240234 299.12963867 -225.51240234 299.12963867 -218.71240234 299.12963867 C-218.71240234 246.32963867 -218.71240234 193.52963867 -218.71240234 139.12963867 C-231.91240234 139.12963867 -245.11240234 139.12963867 -258.71240234 139.12963867 C-262.71240234 135.12963867 -262.71240234 135.12963867 -263.24365234 133.12963867 C-263.23333984 132.46963867 -263.22302734 131.80963867 -263.21240234 131.12963867 C-263.22787109 130.13963867 -263.22787109 130.13963867 -263.24365234 129.12963867 C-262.30045701 125.57878565 -259.81903805 123.78575075 -256.72325945 121.95029783 C-254.12533103 120.57131503 -251.50434155 119.24957529 -248.87017822 117.94110107 C-247.85968406 117.43132288 -246.84918991 116.92154469 -245.80807471 116.39631867 C-242.41571756 114.68746384 -239.01773018 112.99012489 -235.61962891 111.29272461 C-233.18794074 110.07198465 -230.75743566 108.8488965 -228.32684326 107.62597656 C-222.40596116 104.6489315 -216.48066502 101.68077818 -210.55357388 98.71611711 C-205.73566029 96.30620965 -200.91901932 93.89377792 -196.10326385 91.47956085 C-182.44737593 84.63400683 -168.78815571 77.79516765 -155.12461641 70.96489808 C-154.38820491 70.59677224 -153.65179341 70.2286464 -152.89306641 69.84936523 C-152.15575443 69.48079101 -151.41844246 69.11221678 -150.6587877 68.73247364 C-138.70774249 62.75776408 -126.76476025 56.76713018 -114.82534149 50.76922604 C-102.56380484 44.60973109 -90.29634241 38.46218605 -78.02260184 32.32704377 C-71.13277707 28.88279532 -64.24549997 25.43366289 -57.36457062 21.97167206 C-51.50651301 19.02443446 -45.6430359 16.08834312 -39.77225235 13.16653177 C-36.77776028 11.67581682 -33.7871335 10.17844199 -30.80131531 8.67035675 C-27.56224574 7.03542586 -24.31395213 5.42049524 -21.06256104 3.8102417 C-20.12363707 3.33049259 -19.1847131 2.85074348 -18.21733689 2.35645652 C-11.90200327 -0.73500379 -6.94640671 -2.22897749 0 0 Z M-202.71240234 139.12963867 C-202.71240234 191.92963867 -202.71240234 244.72963867 -202.71240234 299.12963867 C-197.43240234 299.12963867 -192.15240234 299.12963867 -186.71240234 299.12963867 C-186.71240234 246.32963867 -186.71240234 193.52963867 -186.71240234 139.12963867 C-191.99240234 139.12963867 -197.27240234 139.12963867 -202.71240234 139.12963867 Z M-170.71240234 139.12963867 C-170.71240234 191.92963867 -170.71240234 244.72963867 -170.71240234 299.12963867 C-158.83240234 299.12963867 -146.95240234 299.12963867 -134.71240234 299.12963867 C-134.71240234 246.32963867 -134.71240234 193.52963867 -134.71240234 139.12963867 C-146.59240234 139.12963867 -158.47240234 139.12963867 -170.71240234 139.12963867 Z M-118.71240234 139.12963867 C-118.71240234 191.92963867 -118.71240234 244.72963867 -118.71240234 299.12963867 C-113.43240234 299.12963867 -108.15240234 299.12963867 -102.71240234 299.12963867 C-102.71240234 246.32963867 -102.71240234 193.52963867 -102.71240234 139.12963867 C-107.99240234 139.12963867 -113.27240234 139.12963867 -118.71240234 139.12963867 Z M-86.71240234 139.12963867 C-86.71240234 191.92963867 -86.71240234 244.72963867 -86.71240234 299.12963867 C-78.79240234 299.12963867 -70.87240234 299.12963867 -62.71240234 299.12963867 C-62.70829346 296.45153076 -62.70418457 293.77342285 -62.69995117 291.01416016 C-62.68266608 282.11330101 -62.63801915 273.21272541 -62.58031178 264.31204128 C-62.54618656 258.92151386 -62.52095442 253.5312655 -62.5168457 248.140625 C-62.51253157 242.92726174 -62.48381306 237.71452647 -62.43897057 232.50135994 C-62.42609442 230.52375016 -62.42165233 228.54606485 -62.42624855 226.5684185 C-62.45852964 208.44207407 -59.83067629 194.25974001 -47.21240234 180.37963867 C-46.38740234 179.63713867 -45.56240234 178.89463867 -44.71240234 178.12963867 C-44.24833984 177.66170898 -43.78427734 177.1937793 -43.30615234 176.71166992 C-31.72662373 165.67138407 -16.59109401 163.45011159 -1.32177734 163.75463867 C11.83034566 164.37544016 22.3608717 169.83261507 32.03759766 178.62963867 C32.78009766 179.45463867 33.52259766 180.27963867 34.28759766 181.12963867 C34.76712891 181.62850586 35.24666016 182.12737305 35.74072266 182.64135742 C44.60673748 192.24620681 48.74272803 204.69487949 48.7199707 217.6184082 C48.73525818 218.95196098 48.73525818 218.95196098 48.75085449 220.31245422 C48.78073107 223.21251942 48.79021131 226.11225299 48.79931641 229.01245117 C48.81618192 231.03841223 48.83433465 233.06436294 48.85371399 235.09030151 C48.90101677 240.39364387 48.9309534 245.69694426 48.95715332 251.00042725 C48.98705877 256.42379031 49.03355461 261.84700908 49.07861328 267.27026367 C49.16442195 277.88999605 49.23033119 288.50971399 49.28759766 299.12963867 C56.87759766 299.12963867 64.46759766 299.12963867 72.28759766 299.12963867 C72.28759766 246.32963867 72.28759766 193.52963867 72.28759766 139.12963867 C19.81759766 139.12963867 -32.65240234 139.12963867 -86.71240234 139.12963867 Z M89.28759766 139.12963867 C89.28759766 191.92963867 89.28759766 244.72963867 89.28759766 299.12963867 C94.23759766 299.12963867 99.18759766 299.12963867 104.28759766 299.12963867 C104.28759766 246.32963867 104.28759766 193.52963867 104.28759766 139.12963867 C99.33759766 139.12963867 94.38759766 139.12963867 89.28759766 139.12963867 Z M121.28759766 139.12963867 C121.28759766 191.92963867 121.28759766 244.72963867 121.28759766 299.12963867 C132.83759766 299.12963867 144.38759766 299.12963867 156.28759766 299.12963867 C156.28759766 246.32963867 156.28759766 193.52963867 156.28759766 139.12963867 C144.73759766 139.12963867 133.18759766 139.12963867 121.28759766 139.12963867 Z M173.28759766 139.12963867 C173.28759766 191.92963867 173.28759766 244.72963867 173.28759766 299.12963867 C178.23759766 299.12963867 183.18759766 299.12963867 188.28759766 299.12963867 C188.28759766 246.32963867 188.28759766 193.52963867 188.28759766 139.12963867 C183.33759766 139.12963867 178.38759766 139.12963867 173.28759766 139.12963867 Z M-39.17724609 196.00854492 C-47.95725661 208.13970448 -46.99767753 223.53124695 -46.90771484 237.80151367 C-46.90476672 239.37784686 -46.90273103 240.95418203 -46.90161133 242.53051758 C-46.89121315 248.3135882 -46.863291 254.09661665 -46.83740234 259.87963867 C-46.79615234 272.83213867 -46.75490234 285.78463867 -46.71240234 299.12963867 C-20.31240234 299.12963867 6.08759766 299.12963867 33.28759766 299.12963867 C33.34947266 279.70088867 33.34947266 279.70088867 33.41259766 259.87963867 C33.43080566 255.81232422 33.44901367 251.74500977 33.46777344 247.55444336 C33.47446841 243.86099411 33.47446841 243.86099411 33.47848511 240.1675415 C33.48152641 238.541391 33.48849738 236.91524457 33.49874878 235.28912354 C33.59331799 219.47722748 33.49816629 203.58220067 22.03759766 191.25463867 C12.3447415 182.48389051 2.241396 179.49249298 -10.69677734 179.81713867 C-22.59987621 180.49026396 -31.76289398 187.07416618 -39.17724609 196.00854492 Z M-226.71240234 315.12963867 C-226.71240234 320.40963867 -226.71240234 325.68963867 -226.71240234 331.12963867 C-81.84240234 331.12963867 63.02759766 331.12963867 212.28759766 331.12963867 C212.28759766 325.84963867 212.28759766 320.56963867 212.28759766 315.12963867 C67.41759766 315.12963867 -77.45240234 315.12963867 -226.71240234 315.12963867 Z M-246.71240234 347.12963867 C-246.71240234 352.40963867 -246.71240234 357.68963867 -246.71240234 363.12963867 C-88.64240234 363.12963867 69.42759766 363.12963867 232.28759766 363.12963867 C232.28759766 357.84963867 232.28759766 352.56963867 232.28759766 347.12963867 C74.21759766 347.12963867 -83.85240234 347.12963867 -246.71240234 347.12963867 Z " fill="#000000" transform="translate(262.71240234375,132.870361328125)"/>
<path d="M0 0 C1.96492759 3.41726538 2.45865805 6.65564028 1.4375 10.5 C-1.57761291 14.17508329 -4.09021012 15.23596025 -8.67285156 16.29589844 C-9.90803528 16.59010681 -11.14321899 16.88431519 -12.41583252 17.18743896 C-13.07332741 17.33728996 -13.7308223 17.48714096 -14.40824127 17.6415329 C-16.4814518 18.11585579 -18.54886983 18.61039556 -20.61590576 19.11090088 C-26.49111011 20.53033957 -32.37337263 21.91850982 -38.26220703 23.28027344 C-41.87152424 24.11642009 -45.47319436 24.98065391 -49.07176971 25.86182404 C-50.43579932 26.1898674 -51.80243395 26.507287 -53.17157745 26.81328583 C-62.19679978 28.83295463 -67.76823808 31.20712212 -73.5625 38.5 C-74.73114936 39.84135882 -75.90262277 41.18026762 -77.078125 42.515625 C-77.64595703 43.17626953 -78.21378906 43.83691406 -78.79882812 44.51757812 C-80.60389129 46.5465251 -82.48642399 48.45486027 -84.421875 50.359375 C-91.99122046 57.86771579 -97.50126536 63.47832027 -98.5625 74.5 C-98.94634813 76.58557484 -99.34176489 78.66906129 -99.75 80.75 C-100.02494741 82.33262411 -100.2974096 83.91569504 -100.5625 85.5 C-99.66789062 85.02949219 -98.77328125 84.55898437 -97.8515625 84.07421875 C-96.63127953 83.44323655 -95.409841 82.81448608 -94.1875 82.1875 C-93.54699707 81.8584668 -92.90649414 81.52943359 -92.24658203 81.19042969 C-88.65954453 79.39556344 -85.38445506 78.08195621 -81.4375 77.25 C-74.95176608 75.53037824 -70.70921639 70.48269325 -66.06054688 65.92675781 C-62.1323553 62.18550104 -57.81333258 58.86355102 -53.5625 55.5 C-52.99660156 54.90517822 -52.43070312 54.31035645 -51.84765625 53.69750977 C-45.73849185 47.85399338 -39.70694258 47.64886052 -31.671875 47.78710938 C-30.50495117 47.82421021 -30.50495117 47.82421021 -29.31445312 47.86206055 C-26.9354464 47.93756518 -24.55976159 47.96452474 -22.1796875 47.98242188 C-20.64839365 48.00501362 -19.11713683 48.03031174 -17.5859375 48.05859375 C-16.88471771 48.07023056 -16.18349792 48.08186737 -15.46102905 48.09385681 C-10.05692219 48.27456675 -4.76957059 48.82104988 -0.375 52.1640625 C0.223125 52.81117187 0.82125 53.45828125 1.4375 54.125 C2.11039063 54.84171875 2.78328125 55.5584375 3.4765625 56.296875 C5.84611603 58.95908255 8.18669935 61.64369485 10.50390625 64.3515625 C13.60636881 67.79874312 16.95916953 70.98944635 20.30078125 74.203125 C22.29345159 76.34515454 23.35089776 77.82531072 24.4375 80.5 C24.02508929 88.12959819 22.37531968 95.59614945 20.8125 103.0625 C20.58949219 104.24263672 20.36648438 105.42277344 20.13671875 106.63867188 C18.4942339 114.40354074 16.24360883 119.09630304 10.4375 124.5 C9.70402344 125.27988281 8.97054687 126.05976562 8.21484375 126.86328125 C7.30412109 127.82814453 7.30412109 127.82814453 6.375 128.8125 C-0.6000305 136.69320307 -4.31163962 145.29215072 -6.5625 155.5 C6.27993517 152.05133003 15.3843037 143.55085463 24.9453125 134.7421875 C28.58063714 131.47153492 32.37985107 128.41432805 36.1875 125.34765625 C40.38592063 121.89999487 41.24278622 119.0419857 42.46875 113.8984375 C42.86613858 112.29142561 43.26385815 110.68449554 43.66186523 109.07763672 C43.86963593 108.22876892 44.07740662 107.37990112 44.29147339 106.50531006 C47.77019756 92.34161615 51.51719494 78.29444345 55.875 64.375 C56.08382812 63.69991394 56.29265625 63.02482788 56.5078125 62.32928467 C60.31689422 50.06013903 60.31689422 50.06013903 63.4375 45.5 C66.64852274 43.89448863 69.95449208 44.03192779 73.4375 44.5 C75.9375 45.9375 75.9375 45.9375 77.4375 48.5 C78.02787584 55.97563405 76.3851477 61.73348496 73.9375 68.75 C70.77685389 78.20638628 67.88752434 87.69678926 65.25 97.3125 C64.91000977 98.53275879 64.57001953 99.75301758 64.21972656 101.01025391 C62.72470597 106.44782389 61.3171945 111.85655072 60.24609375 117.39453125 C57.85021352 129.51823597 54.43324953 135.2515485 44.4375 142.5 C42.57646573 144.03336936 40.72201845 145.57477648 38.875 147.125 C36.11664134 149.40294786 33.39820012 151.52591257 30.41015625 153.49609375 C25.206332 157.11346961 22.11093906 159.74814997 20.87011719 166.17651367 C20.56089032 168.26084999 20.28590441 170.34679003 20.0234375 172.4375 C17.7697016 190.23279762 5.31539523 207.54698527 -8.5234375 218.3359375 C-28.55133165 232.59744567 -51.55222222 237.99044375 -76.046875 233.88671875 C-91.40361703 230.14639639 -105.79572061 222.07428784 -116.5625 210.5 C-117.22894531 209.83871094 -117.89539063 209.17742187 -118.58203125 208.49609375 C-134.6895562 191.83976045 -139.13027646 171.17743941 -138.83203125 148.6328125 C-138.40064169 134.76459448 -133.90226955 119.55315173 -125.01928711 108.59654236 C-123.36844771 106.22072869 -122.89310405 104.45804845 -122.3515625 101.62719727 C-122.16126465 100.662621 -121.9709668 99.69804474 -121.77490234 98.70423889 C-121.58105957 97.66875412 -121.3872168 96.63326935 -121.1875 95.56640625 C-120.97689941 94.49631821 -120.76629883 93.42623016 -120.54931641 92.32371521 C-119.87697059 88.90518376 -119.21824564 85.48425189 -118.5625 82.0625 C-117.69860153 77.56155097 -116.8217475 73.06339591 -115.9375 68.56640625 C-115.74365723 67.53294571 -115.54981445 66.49948517 -115.35009766 65.43470764 C-113.75339244 57.31492589 -110.93512263 52.62245114 -105.25 46.625 C-104.47027832 45.7911377 -104.47027832 45.7911377 -103.67480469 44.94042969 C-101.97457067 43.12328568 -100.26851181 41.31171912 -98.5625 39.5 C-96.74785247 37.56378536 -94.93498851 35.62593869 -93.12402344 33.6862793 C-91.91865185 32.39789627 -90.70967174 31.1128796 -89.49707031 29.83129883 C-86.30477117 26.44357992 -83.36483426 22.98551908 -80.5 19.3125 C-75.83153072 14.17924949 -70.07184178 13.23221199 -63.5625 11.5 C-62.65176727 11.25762604 -61.74103455 11.01525208 -60.80270386 10.76553345 C-54.16619975 9.01307144 -47.51642061 7.31662568 -40.859375 5.64404297 C-37.30465292 4.74802203 -33.75397797 3.8369971 -30.203125 2.92578125 C-27.92210893 2.35063394 -25.64086642 1.7763838 -23.359375 1.203125 C-21.78407013 0.79540863 -21.78407013 0.79540863 -20.17694092 0.37945557 C-5.54462862 -3.24563627 -5.54462862 -3.24563627 0 0 Z M-47.5625 73.5 C-44.87937407 76.18312593 -42.63425829 76.29225655 -38.9375 77.125 C-23.69233413 80.89261171 -10.65102366 88.72865658 0.02734375 100.21484375 C1.36588154 101.72452981 1.36588154 101.72452981 3.4375 101.5 C6.6626404 91.98361164 6.6626404 91.98361164 4.984375 82.5625 C2.77166545 80.05670401 2.77166545 80.05670401 0.109375 77.828125 C-2.5625 75.5 -2.5625 75.5 -4.484375 72.671875 C-7.65351691 68.27438351 -10.09803404 65.98459076 -15.40332031 64.94140625 C-18.82516191 64.57657378 -22.18435216 64.42703338 -25.625 64.375 C-27.3119397 64.33125244 -27.3119397 64.33125244 -29.03295898 64.28662109 C-37.58348563 64.49444858 -41.93646669 67.14360759 -47.5625 73.5 Z M-104.3125 109.6875 C-118.02775501 124.14950211 -122.19401215 140.49350856 -121.90234375 159.7578125 C-121.22580976 176.74134208 -112.66080128 190.89753074 -100.5625 202.5 C-84.91069546 215.3264788 -68.37906277 218.85432344 -48.5625 217.5 C-33.26709507 215.72105895 -19.71547464 206.69430538 -9.5625 195.5 C-4.89382782 189.42126844 2.4375 179.43885837 2.4375 171.5 C0.68373047 171.55220703 0.68373047 171.55220703 -1.10546875 171.60546875 C-2.65363141 171.63361716 -4.20180968 171.66091619 -5.75 171.6875 C-6.51892578 171.71263672 -7.28785156 171.73777344 -8.08007812 171.76367188 C-12.84542438 171.82502826 -15.57259503 171.36281317 -19.5625 168.5 C-20.2225 168.5 -20.8825 168.5 -21.5625 168.5 C-25.1595535 156.48057731 -22.23447738 142.487438 -16.62109375 131.546875 C-11.30560603 121.81165767 -11.30560603 121.81165767 -7.5625 118.5 C-11.24307297 108.03562588 -22.00069835 101.33835782 -31.5625 96.5 C-56.89960471 85.559258 -84.17332286 90.92536061 -104.3125 109.6875 Z " fill="#000000" transform="translate(434.5625,1.5)"/>
<path d="M0 0 C2.2421875 1.62890625 2.2421875 1.62890625 4 4 C4.390625 7.015625 4.390625 7.015625 4.25 10.25 C4.21390625 11.32765625 4.1778125 12.4053125 4.140625 13.515625 C4.09421875 14.33546875 4.0478125 15.1553125 4 16 C4.81984375 15.95359375 5.6396875 15.9071875 6.484375 15.859375 C7.56203125 15.82328125 8.6396875 15.7871875 9.75 15.75 C11.35101563 15.68039063 11.35101563 15.68039063 12.984375 15.609375 C16 16 16 16 18.359375 17.765625 C20.09023982 20.12289805 20.54492653 21.12470206 20.5 24 C20.5103125 24.66 20.520625 25.32 20.53125 26 C19.73716585 28.98949329 18.42942996 30.10002361 16 32 C12.60839844 32.45410156 12.60839844 32.45410156 8.609375 32.390625 C7.55245453 32.38213531 7.55245453 32.38213531 6.47418213 32.37347412 C4.23208572 32.35115078 1.99161012 32.30096754 -0.25 32.25 C-1.77341435 32.22992952 -3.29685386 32.2116797 -4.8203125 32.1953125 C-8.5473983 32.15130118 -12.27354087 32.08230372 -16 32 C-16 35.96 -16 39.92 -16 44 C-14.19273437 43.95359375 -12.38546875 43.9071875 -10.5234375 43.859375 C-8.14064155 43.82185065 -5.7578277 43.78545121 -3.375 43.75 C-1.59029297 43.69972656 -1.59029297 43.69972656 0.23046875 43.6484375 C11.41965682 43.52341864 11.41965682 43.52341864 16 48 C21.05501392 53.39201484 20.60132817 59.00835646 20.5 66 C20.51546875 67.06734375 20.5309375 68.1346875 20.546875 69.234375 C20.51587629 75.46511623 20.19313285 79.28464547 16 84 C11.42050868 88.14334929 7.8872745 88.3847252 1.9765625 88.140625 C1.32429688 88.09421875 0.67203125 88.0478125 0 88 C0.04640625 88.81984375 0.0928125 89.6396875 0.140625 90.484375 C0.19476563 92.10085937 0.19476563 92.10085937 0.25 93.75 C0.29640625 94.81734375 0.3428125 95.8846875 0.390625 96.984375 C0 100 0 100 -1.765625 102.359375 C-4.75612798 104.55519887 -6.50133414 104.57814273 -10.09765625 104.390625 C-13.06757326 103.78078578 -14.30252114 102.44436955 -16 100 C-17.59258828 96.28396069 -17.0661311 91.96786602 -17 88 C-17.74765625 88.04640625 -18.4953125 88.0928125 -19.265625 88.140625 C-27.22538383 88.43234391 -27.22538383 88.43234391 -30.6875 86.5 C-32.49416915 83.05872543 -33.00781873 79.79414109 -32 76 C-30.41503906 73.89941406 -30.41503906 73.89941406 -28 72 C-24.70019531 71.54589844 -24.70019531 71.54589844 -20.828125 71.609375 C-19.8044986 71.61786469 -19.8044986 71.61786469 -18.76019287 71.62652588 C-16.58940238 71.64884364 -14.42028794 71.69902492 -12.25 71.75 C-10.7747635 71.77007124 -9.29950101 71.78832093 -7.82421875 71.8046875 C-4.21560499 71.8486912 -0.60796619 71.91768417 3 72 C3 68.04 3 64.08 3 60 C1.26492188 60.04640625 -0.47015625 60.0928125 -2.2578125 60.140625 C-4.54685776 60.17815033 -6.83592167 60.21454967 -9.125 60.25 C-10.26710938 60.28351563 -11.40921875 60.31703125 -12.5859375 60.3515625 C-19.03242954 60.42652171 -23.16758737 60.46937662 -28 56 C-33.83533903 48.74525418 -33.44697945 40.93958904 -33 32 C-32.29766263 25.97996543 -30.225379 22.225379 -26 18 C-22.98005782 16.12991028 -20.77816672 15.77123039 -17.25 15.875 C-16.45078125 15.89304687 -15.6515625 15.91109375 -14.828125 15.9296875 C-14.22484375 15.95289062 -13.6215625 15.97609375 -13 16 C-13.061875 14.824375 -13.12375 13.64875 -13.1875 12.4375 C-13.19551559 7.93273639 -12.10475982 4.96666275 -10 1 C-6.87057535 -0.56471233 -3.38917777 -0.69701958 0 0 Z " fill="#000000" transform="translate(382,104)"/>
</svg>
